:SAMPLES-PER-SECOND 30
:FULLY-SPECIFIED
:DEGREES
296
root  -0.942615 40.652 -3.85349 2.04163 71.9879 1.33972
RightUpLeg  -2.05278 -19.879 -6.02095
RightLeg  13.4749 -16.5863 0.0754072
RightFoot  -6.5105 -0.0431432 -0.0257813
RightToes  0.00048216 0.542163 -0.142577
Spine  6.14057 -1.18924 -2.56649
Spine1  6.35702 -2.42617 4.47923
HEad  0.856367 28.5228 -8.00298
LeftShoulder1  7.39348 -11.1049 -44.0515
LeftArm  -10.1085 16.0663 -27.6545
LeftForeArm  17.8793 -21.4263 -3.94085
LeftHand  -0.25398 0.0180481 5.50724
RightShoulder  4.6113 8.29899 33.1265
RightArm  1.28823 -26.8856 29.8744
RightForeArm  -15.2232 21.9514 5.74013
RightHand  -1.66576 3.77307 -21.2022
LeftUpLeg  5.27153 4.46842 -0.914243
LeftLeg  3.46576 23.7283 -4.59789
LeftFoot  -9.38594 0.0331104 1.29773
LeftToes  1.06245e-005 4.65855e-005 -8.18504e-006
297
root  -1.32173 40.7182 -3.74218 3.30536 75.792 2.17804
RightUpLeg  -3.04326 -21.4444 -5.28863
RightLeg  14.299 -16.3615 -1.21932
RightFoot  -6.16882 -0.0581284 0.356961
RightToes  0.00048216 0.542163 -0.142577
Spine  5.95 -1.00053 -4.1185
Spine1  6.50769 -2.48095 5.17656
HEad  0.587134 26.5812 -7.31385
LeftShoulder1  7.58576 -11.2689 -44.7287
LeftArm  -9.20615 14.5889 -26.2222
LeftForeArm  16.8418 -17.3373 -4.42965
LeftHand  -0.25398 0.0180481 5.50724
RightShoulder  4.76547 8.44144 33.9477
RightArm  -4.3887 -26.368 31.5441
RightForeArm  -13.2795 20.3685 5.74662
RightHand  -1.72536 4.0788 -21.2584
LeftUpLeg  5.01398 4.42199 -0.695542
LeftLeg  1.20957 19.893 -4.88569
LeftFoot  -7.9546 -0.00355369 1.77846
LeftToes  1.06245e-005 4.65855e-005 -8.18504e-006
298
root  -1.66395 40.7814 -3.67533 6.21277 78.8105 4.39789
RightUpLeg  -4.54001 -21.5341 -4.91095
RightLeg  15.236 -13.6515 -2.12238
RightFoot  -5.92482 -0.0865604 0.979003
RightToes  0.00048216 0.542163 -0.142577
Spine  5.55416 -0.709618 -4.71779
Spine1  6.4172 -2.07096 4.72088
HEad  1.06537 24.365 -6.40119
LeftShoulder1  7.68635 -11.3709 -45.0235
LeftArm  -9.0632 13.3076 -24.9477
LeftForeArm  17.979 -13.8168 -5.21882
LeftHand  -0.25398 0.0180481 5.50724
RightShoulder  4.81186 8.46755 34.2444
RightArm  -9.47372 -25.5849 33.9824
RightForeArm  -11.301 18.984 5.70272
RightHand  -1.76887 4.24806 -21.4121
LeftUpLeg  3.61826 4.24742 -0.659411
LeftLeg  1.06409 17.1369 -4.91182
LeftFoot  -6.54533 -0.0211463 1.4448
LeftToes  1.06245e-005 4.65855e-005 -8.18504e-006
299
root  -1.97679 40.7986 -3.66038 8.93665 81.4503 6.62128
RightUpLeg  -5.25981 -18.4564 -5.07364
RightLeg  15.4414 -9.70339 -1.88998
RightFoot  -6.09501 -0.120847 1.73733
RightToes  0.00048216 0.542163 -0.142577
Spine  5.62781 -0.468185 -3.88222
Spine1  5.97902 -1.39146 3.14283
HEad  1.83153 22.1263 -5.71402
LeftShoulder1  7.74105 -11.4973 -44.96
LeftArm  -8.77645 12.7928 -24.0709
LeftForeArm  19.7777 -12.0825 -5.64005
LeftHand  -0.25398 0.0180481 5.50724
RightShoulder  4.79827 8.48525 34.0737
RightArm  -11.3378 -24.795 36.451
RightForeArm  -10.8619 18.7015 5.65209
RightHand  -1.76555 4.24325 -21.3833
LeftUpLeg  2.08009 4.12233 -0.584835
LeftLeg  1.78231 14.8012 -4.73006
LeftFoot  -5.99847 -0.0251196 1.30999
LeftToes  1.06245e-005 4.65855e-005 -8.18504e-006
300
root  -2.25613 40.7735 -3.66871 11.9606 83.8164 9.66968
RightUpLeg  -4.65465 -12.8242 -5.75513
RightLeg  14.626 -5.48413 -0.983322
RightFoot  -6.87317 -0.148059 2.61454
RightToes  0.00048216 0.542163 -0.142577
Spine  6.18873 -0.208524 -2.50222
Spine1  5.80083 -0.660442 1.33944
HEad  2.03089 20.0457 -5.80631
LeftShoulder1  7.84626 -11.7027 -44.9561
LeftArm  -7.91452 12.9822 -23.5085
LeftForeArm  20.9237 -12.3909 -5.6911
LeftHand  -0.25398 0.0180481 5.50724
RightShoulder  4.83318 8.65657 33.7995
RightArm  -9.01518 -24.0004 37.9275
RightForeArm  -11.6203 20.3529 5.58727
RightHand  -1.736 4.22132 -21.084
LeftUpLeg  0.996261 4.10163 -0.489331
LeftLeg  2.78607 12.5419 -4.51587
LeftFoot  -6.01339 -0.0404783 1.64962
LeftToes  1.06245e-005 4.65855e-005 -8.18504e-006
301
root  -2.47929 40.731 -3.66991 19.4387 85.6418 17.4385
RightUpLeg  -3.44287 -7.59833 -6.53666
RightLeg  13.2911 -1.60396 -0.363097
RightFoot  -8.18317 -0.148581 3.3623
RightToes  0.00048216 0.542163 -0.142577
Spine  6.58711 0.147691 -1.61769
Spine1  6.26505 0.0299064 0.0366276
HEad  1.46007 18.3497 -6.65549
LeftShoulder1  7.96613 -11.8729 -45.1466
LeftArm  -6.72553 13.5601 -23.2256
LeftForeArm  20.6854 -13.7687 -5.54296
LeftHand  -0.25398 0.0180481 5.50724
RightShoulder  4.92127 8.89783 33.7366
RightArm  -5.16188 -22.9801 38.0068
RightForeArm  -10.5731 23.7502 5.61281
RightHand  -1.67026 4.05883 -20.6448
LeftUpLeg  0.364152 4.15321 -0.604108
LeftLeg  3.71836 10.6383 -4.50553
LeftFoot  -6.02115 -0.0570529 2.00788
LeftToes  1.06245e-005 4.65855e-005 -8.18504e-006
302
root  -2.63638 40.7152 -3.66414 34.5761 86.8673 32.5921
RightUpLeg  -2.51328 -5.44229 -7.06532
RightLeg  11.9053 0.985962 -0.194113
RightFoot  -9.18499 -0.127501 3.43344
RightToes  0.00048216 0.542163 -0.142577
Spine  6.41479 0.468738 -1.12724
Spine1  6.88327 0.586209 -0.753954
HEad  0.865126 17.266 -7.63917
LeftShoulder1  7.98395 -11.8761 -45.2415
LeftArm  -5.97291 14.5989 -23.3467
LeftForeArm  19.3976 -15.3249 -5.22543
LeftHand  -0.25398 0.0180481 5.50724
RightShoulder  4.9777 8.97561 33.9405
RightArm  -3.34241 -21.5647 37.1507
RightForeArm  -5.42755 27.6289 6.23835
RightHand  -1.55643 3.6066 -20.2051
LeftUpLeg  -0.0110493 4.05008 -0.893495
LeftLeg  3.84077 9.32737 -4.6858
LeftFoot  -5.70407 -0.0703188 2.12679
LeftToes  1.06245e-005 4.65855e-005 -8.18504e-006
303
root  -2.75363 40.748 -3.65841 58.8302 87.697 56.4357
RightUpLeg  -2.18295 -6.13689 -7.28674
RightLeg  10.6645 1.55217 -0.0280063
RightFoot  -9.17358 -0.111641 2.64702
RightToes  0.00048216 0.542163 -0.142577
Spine  5.94114 0.570508 -0.548881
Spine1  6.98669 0.887703 -1.2916
HEad  1.00598 16.8558 -8.17235
LeftShoulder1  7.87815 -11.7314 -45.0582
LeftArm  -6.4052 16.3824 -23.9268
LeftForeArm  18.0345 -17.0194 -4.71909
LeftHand  -0.25398 0.0180481 5.50724
RightShoulder  4.96413 8.85405 34.22
RightArm  -2.73588 -19.941 36.2645
RightForeArm  0.267548 31.19 6.82674
RightHand  -1.43466 3.05573 -19.8317
LeftUpLeg  -0.366375 3.65304 -1.16541
LeftLeg  3.04976 8.40334 -4.77673
LeftFoot  -5.03331 -0.0894123 2.1723
LeftToes  1.06245e-005 4.65855e-005 -8.18504e-006
304
root  -2.86336 40.8002 -3.64507 91.6701 88.0516 88.7622
RightUpLeg  -2.24208 -7.38096 -7.37928
RightLeg  9.79558 0.649067 0.395002
RightFoot  -8.53778 -0.097954 1.63308
RightToes  0.00048216 0.542163 -0.142577
Spine  5.61874 0.524663 0.0812769
Spine1  6.63761 0.97927 -1.66735
HEad  1.73758 16.8853 -8.19076
LeftShoulder1  7.74897 -11.5633 -44.8028
LeftArm  -8.19063 18.7247 -24.8441
LeftForeArm  17.2405 -18.9541 -4.18447
LeftHand  -0.25398 0.0180481 5.50724
RightShoulder  4.91873 8.71933 34.2902
RightArm  -3.1265 -18.4824 35.775
RightForeArm  3.58412 34.2646 7.45834
RightHand  -1.34978 2.60555 -19.6953
LeftUpLeg  -0.836524 3.1672 -1.34057
LeftLeg  2.22357 7.62249 -4.65992
LeftFoot  -4.28106 -0.114165 2.26884
LeftToes  1.06245e-005 4.65855e-005 -8.18504e-006
305
root  -2.96697 40.8403 -3.62163 118.407 87.8798 115.212
RightUpLeg  -2.26721 -8.0544 -7.49374
RightLeg  9.24941 -0.0255719 0.860617
RightFoot  -8.00456 -0.0931658 1.32397
RightToes  0.00048216 0.542163 -0.142577
Spine  5.53968 0.547482 0.601977
Spine1  6.41687 1.06355 -1.82053
HEad  2.33192 16.9714 -8.01502
LeftShoulder1  7.68576 -11.476 -44.6911
LeftArm  -10.7421 20.9894 -25.942
LeftForeArm  16.9832 -20.7035 -3.92263
LeftHand  -0.25398 0.0180481 5.50724
RightShoulder  4.87005 8.67341 34.0449
RightArm  -4.09456 -17.259 35.6384
RightForeArm  3.09791 36.8958 8.23935
RightHand  -1.33489 2.3984 -19.9739
LeftUpLeg  -1.24814 2.88126 -1.38971
LeftLeg  1.89429 6.98353 -4.51666
LeftFoot  -3.76352 -0.129612 2.30049
LeftToes  1.06245e-005 4.65855e-005 -8.18504e-006
306
root  -3.0493 40.8528 -3.58457 131.962 87.5331 128.749
RightUpLeg  -2.12459 -8.42772 -7.65476
RightLeg  8.98916 -0.0238365 1.2005
RightFoot  -7.86673 -0.103983 1.66941
RightToes  0.00048216 0.542163 -0.142577
Spine  5.57552 0.681935 0.928098
Spine1  6.55372 1.20469 -1.76891
HEad  2.47595 16.8861 -7.88786
LeftShoulder1  7.67682 -11.4856 -44.6068
LeftArm  -12.9141 22.778 -27.143
LeftForeArm  16.8041 -21.766 -3.91998
LeftHand  -0.25398 0.0180481 5.50724
RightShoulder  4.80499 8.62233 33.6798
RightArm  -5.06418 -16.0399 35.636
RightForeArm  0.128444 38.897 9.03328
RightHand  -1.43506 2.73106 -20.5855
LeftUpLeg  -1.46525 2.82246 -1.34499
LeftLeg  1.96329 6.44996 -4.45778
LeftFoot  -3.60411 -0.121607 2.11859
LeftToes  1.06245e-005 4.65855e-005 -8.18504e-006
